<?xml version="1.0" standalone="no"?>
<!DOCTYPE svg PUBLIC "-//W3C//DTD SVG 20010904//EN"
 "http://www.w3.org/TR/2001/REC-SVG-20010904/DTD/svg10.dtd">
<svg version="1.0" xmlns="http://www.w3.org/2000/svg"
 width="370.000000pt" height="370.000000pt" viewBox="0 0 370.000000 370.000000"
 preserveAspectRatio="xMidYMid meet">
<metadata>
Created by potrace 1.14, written by Peter Selinger 2001-2017
</metadata>
<g transform="translate(0.000000,370.000000) scale(0.100000,-0.100000)"
fill="#000000" stroke="none">
<path d="M1925 2859 c-493 -37 -814 -164 -1080 -425 -417 -410 -486 -1073
-159 -1531 47 -65 186 -213 201 -213 4 0 25 53 46 119 64 202 184 422 322 591
84 102 280 289 391 372 103 76 231 157 314 198 l45 22 -55 -48 c-292 -252
-507 -586 -691 -1072 -38 -102 -109 -329 -109 -350 0 -13 131 -64 220 -85 196
-47 457 -49 635 -3 221 56 400 150 558 294 383 348 513 764 493 1587 -5 221
-21 524 -29 531 -1 1 -96 7 -211 13 -236 12 -726 12 -891 0z"/>
</g>
</svg>
