<svg width="1080" height="302" viewBox="0 0 1080 302" fill="none" xmlns="http://www.w3.org/2000/svg">
<path d="M362.3 224.05C350 224.05 339.9 221.15 332 215.35C324.1 209.45 319.85 201.05 319.25 190.15H350.6C350.9 193.85 352 196.55 353.9 198.25C355.8 199.95 358.25 200.8 361.25 200.8C363.95 200.8 366.15 200.15 367.85 198.85C369.65 197.45 370.55 195.55 370.55 193.15C370.55 190.05 369.1 187.65 366.2 185.95C363.3 184.25 358.6 182.35 352.1 180.25C345.2 177.95 339.6 175.75 335.3 173.65C331.1 171.45 327.4 168.3 324.2 164.2C321.1 160 319.55 154.55 319.55 147.85C319.55 141.05 321.25 135.25 324.65 130.45C328.05 125.55 332.75 121.85 338.75 119.35C344.75 116.85 351.55 115.6 359.15 115.6C371.45 115.6 381.25 118.5 388.55 124.3C395.95 130 399.9 138.05 400.4 148.45H368.45C368.35 145.25 367.35 142.85 365.45 141.25C363.65 139.65 361.3 138.85 358.4 138.85C356.2 138.85 354.4 139.5 353 140.8C351.6 142.1 350.9 143.95 350.9 146.35C350.9 148.35 351.65 150.1 353.15 151.6C354.75 153 356.7 154.25 359 155.35C361.3 156.35 364.7 157.65 369.2 159.25C375.9 161.55 381.4 163.85 385.7 166.15C390.1 168.35 393.85 171.5 396.95 175.6C400.15 179.6 401.75 184.7 401.75 190.9C401.75 197.2 400.15 202.85 396.95 207.85C393.85 212.85 389.3 216.8 383.3 219.7C377.4 222.6 370.4 224.05 362.3 224.05ZM468.068 223L444.818 188.5V223H415.418V112H444.818V171.85L468.068 138.85H503.318L470.168 181.15L503.918 223H468.068ZM625.009 138.1C634.709 138.1 642.409 141.35 648.109 147.85C653.809 154.25 656.659 162.95 656.659 173.95V223H627.259V177.85C627.259 173.05 626.009 169.3 623.509 166.6C621.009 163.8 617.659 162.4 613.459 162.4C609.059 162.4 605.609 163.8 603.109 166.6C600.609 169.3 599.359 173.05 599.359 177.85V223H569.959V138.85H599.359V150.85C601.959 147.05 605.459 144 609.859 141.7C614.259 139.3 619.309 138.1 625.009 138.1ZM669.941 170.65C669.941 160.45 672.291 151.3 676.991 143.2C681.791 135.1 688.241 128.8 696.341 124.3C704.541 119.7 713.491 117.4 723.191 117.4C734.291 117.4 744.141 120.15 752.741 125.65C761.441 131.05 767.741 138.75 771.641 148.75H751.091C748.391 143.25 744.641 139.15 739.841 136.45C735.041 133.75 729.491 132.4 723.191 132.4C716.291 132.4 710.141 133.95 704.741 137.05C699.341 140.15 695.091 144.6 691.991 150.4C688.991 156.2 687.491 162.95 687.491 170.65C687.491 178.35 688.991 185.1 691.991 190.9C695.091 196.7 699.341 201.2 704.741 204.4C710.141 207.5 716.291 209.05 723.191 209.05C729.491 209.05 735.041 207.7 739.841 205C744.641 202.3 748.391 198.2 751.091 192.7H771.641C767.741 202.7 761.441 210.4 752.741 215.8C744.141 221.2 734.291 223.9 723.191 223.9C713.391 223.9 704.441 221.65 696.341 217.15C688.241 212.55 681.791 206.2 676.991 198.1C672.291 190 669.941 180.85 669.941 170.65ZM785.956 181.3C785.956 173 787.656 165.65 791.056 159.25C794.556 152.85 799.256 147.9 805.156 144.4C811.156 140.8 817.756 139 824.956 139C831.456 139 837.106 140.3 841.906 142.9C846.806 145.4 850.706 148.55 853.606 152.35V140.35H870.856V223H853.606V210.7C850.706 214.6 846.756 217.85 841.756 220.45C836.756 223.05 831.056 224.35 824.656 224.35C817.556 224.35 811.056 222.55 805.156 218.95C799.256 215.25 794.556 210.15 791.056 203.65C787.656 197.05 785.956 189.6 785.956 181.3ZM853.606 181.6C853.606 175.9 852.406 170.95 850.006 166.75C847.706 162.55 844.656 159.35 840.856 157.15C837.056 154.95 832.956 153.85 828.556 153.85C824.156 153.85 820.056 154.95 816.256 157.15C812.456 159.25 809.356 162.4 806.956 166.6C804.656 170.7 803.506 175.6 803.506 181.3C803.506 187 804.656 192 806.956 196.3C809.356 200.6 812.456 203.9 816.256 206.2C820.156 208.4 824.256 209.5 828.556 209.5C832.956 209.5 837.056 208.4 840.856 206.2C844.656 204 847.706 200.8 850.006 196.6C852.406 192.3 853.606 187.3 853.606 181.6ZM910.416 152.35C912.916 148.15 916.216 144.9 920.316 142.6C924.516 140.2 929.466 139 935.166 139V156.7H930.816C924.116 156.7 919.016 158.4 915.516 161.8C912.116 165.2 910.416 171.1 910.416 179.5V223H893.316V140.35H910.416V152.35ZM1026.63 179.65C1026.63 182.75 1026.43 185.55 1026.03 188.05H962.885C963.385 194.65 965.835 199.95 970.235 203.95C974.635 207.95 980.035 209.95 986.435 209.95C995.635 209.95 1002.13 206.1 1005.93 198.4H1024.38C1021.88 206 1017.33 212.25 1010.73 217.15C1004.23 221.95 996.135 224.35 986.435 224.35C978.535 224.35 971.435 222.6 965.135 219.1C958.935 215.5 954.035 210.5 950.435 204.1C946.935 197.6 945.185 190.1 945.185 181.6C945.185 173.1 946.885 165.65 950.285 159.25C953.785 152.75 958.635 147.75 964.835 144.25C971.135 140.75 978.335 139 986.435 139C994.235 139 1001.18 140.7 1007.28 144.1C1013.38 147.5 1018.13 152.3 1021.53 158.5C1024.93 164.6 1026.63 171.65 1026.63 179.65ZM1008.78 174.25C1008.68 167.95 1006.43 162.9 1002.03 159.1C997.635 155.3 992.185 153.4 985.685 153.4C979.785 153.4 974.735 155.3 970.535 159.1C966.335 162.8 963.835 167.85 963.035 174.25H1008.78Z" fill="white"/>
<mask id="mask0_128_39" style="mask-type:alpha" maskUnits="userSpaceOnUse" x="0" y="0" width="314" height="302">
<rect width="314" height="302" fill="#D9D9D9"/>
</mask>
<g mask="url(#mask0_128_39)">
<path d="M145.225 275.261C136.067 275.261 127.563 274.422 119.713 272.744C111.863 271.066 104.558 268.549 97.798 265.194C104.122 240.656 113.389 216.905 125.6 193.941C137.811 170.976 154.056 151.734 174.336 136.215C150.349 147.54 129.471 163.112 111.699 182.93C93.9275 202.749 81.989 225.242 75.8834 250.408C74.7931 249.779 73.8664 249.098 73.1032 248.364L70.6501 246.004C60.8376 236.567 53.4237 225.871 48.4084 213.917C43.3931 201.963 40.8855 189.379 40.8855 176.167C40.8855 161.906 43.6657 148.116 49.2261 134.799C54.7865 121.482 62.8001 109.79 73.2667 99.7231C89.839 83.3647 111.263 72.7738 137.539 67.9501C163.814 63.1265 203.555 62.3925 256.761 65.7481C260.686 115.452 260.031 153.36 254.798 179.47C249.565 205.58 238.335 226.92 221.108 243.488C210.86 253.764 199.139 261.629 185.947 267.081C172.755 272.534 159.181 275.261 145.225 275.261Z" fill="#8FD974"/>
</g>
<mask id="mask1_128_39" style="mask-type:alpha" maskUnits="userSpaceOnUse" x="502" y="67" width="77" height="76">
<rect x="513.211" y="67.0005" width="65.8804" height="64.5598" transform="rotate(10 513.211 67.0005)" fill="#D9D9D9"/>
</mask>
<g mask="url(#mask1_128_39)">
<path d="M533 130.241C531.107 129.908 529.381 129.421 527.821 128.782C526.262 128.143 524.846 127.347 523.574 126.394C525.791 121.459 528.588 116.796 531.963 112.406C535.339 108.017 539.41 104.557 544.176 102.029C538.8 103.539 533.907 106.057 529.5 109.582C525.092 113.107 521.79 117.407 519.595 122.483C519.393 122.311 519.226 122.133 519.096 121.951L518.677 121.365C517 119.021 515.865 116.499 515.272 113.799C514.68 111.1 514.629 108.36 515.119 105.578C515.649 102.576 516.735 99.774 518.378 97.1729C520.021 94.5718 522.111 92.4023 524.648 90.6643C528.679 87.8242 533.499 86.3751 539.107 86.3169C544.715 86.2587 552.954 87.5521 563.823 90.197C562.789 100.804 561.246 108.761 559.196 114.067C557.145 119.373 554.033 123.456 549.858 126.317C547.359 128.107 544.645 129.336 541.717 130.003C538.789 130.67 535.883 130.75 533 130.241Z" fill="white"/>
</g>
<rect x="521" y="139" width="30" height="84" fill="white"/>
</svg>
